<svg xmlns="http://www.w3.org/2000/svg" viewBox="0 0 100 100"><style>
.i{fill:none;stroke:#141413;stroke-width:6.5;stroke-linecap:round;stroke-linejoin:round}
.t{fill:none;stroke:#141413;stroke-width:5;stroke-linecap:round;stroke-linejoin:round}
.r{transform-origin:50px 78px;animation:r 5s infinite}
@keyframes r{0%,10%{transform:rotate(0deg)}13%{transform:rotate(3deg);animation-timing-function:ease-in-out}25%{transform:rotate(-25deg);animation-timing-function:ease-in-out}37%{transform:rotate(0deg);animation-timing-function:ease-in-out}49%{transform:rotate(-25deg);animation-timing-function:ease-in-out}60%{transform:rotate(1.5deg)}63%,100%{transform:rotate(0deg)}}
</style>
<path d="M15 94.5c22 1.8 48 2 70 .2" fill="none" stroke="#CFC2AC" stroke-width="6" stroke-linecap="round"/>
<path d="M27.4 88.6c15 1.2 32 1 47.2-.8-4.6-24-9.2-48-14-72-6.2-1-12.8-1-19.4.4-4.6 24.2-9.2 48.2-13.8 72.4z" fill="#A57A8A"/>
<path d="M33.6 80c2.6-18.6 5.2-37.2 8-55.6l4.4-.4c-2.4 18.8-5 37.4-7.4 56z" fill="#FAF9F5" opacity=".4"/>
<path class="i" d="M25 90.4c4.8-24.8 9.6-49.6 14.4-74.6M38.8 16c7.4-1.8 14.6-1.8 21.8-.4M60 15.2c5 25 10 49.8 15 74.8M19.6 91.6c20 1.6 41.6 1.4 61-.6M50 15.4c-.2-3-.1-5.6.3-8.2"/>
<g class="r"><path class="t" d="M50 78c3.2-14.4 6.4-28.8 9.6-43.4"/><path d="M50.6 46.6l11.6 2.4-3.4 9.4-8.6-1.8z" fill="#E2B865" stroke="#141413" stroke-width="3.4" stroke-linejoin="round"/></g>
<path d="M46.2 78c0-2.2 1.6-3.7 3.8-3.7s3.8 1.5 3.8 3.7-1.6 3.8-3.8 3.8-3.8-1.6-3.8-3.8z" fill="#141413"/>
</svg>